HIERARCHY
ROOT hip
{
  OFFSET 0 0 0
  CHANNELS 6 Xposition Yposition Zposition Zrotation Yrotation Xrotation
  JOINT abdomen
  {
    OFFSET 0 20.6881 -0.73152
    CHANNELS 3 Zrotation Xrotation Yrotation
    JOINT chest
    {
      OFFSET 0 11.7043 -0.48768
      CHANNELS 3 Zrotation Xrotation Yrotation
      JOINT neck
      {
        OFFSET 0 22.1894 -2.19456
        CHANNELS 3 Zrotation Xrotation Yrotation
        JOINT head
        {
          OFFSET -0.24384 7.07133 1.2192
          CHANNELS 3 Zrotation Xrotation Yrotation
          JOINT leftEye
          {
            OFFSET 4.14528 8.04674 8.04672
            CHANNELS 3 Zrotation Xrotation Yrotation
            End Site
            {
              OFFSET 1 0 0
            }
          }
          JOINT rightEye
          {
            OFFSET -3.6576 8.04674 8.04672
            CHANNELS 3 Zrotation Xrotation Yrotation
            End Site
            {
              OFFSET 1 0 0
            }
          }
        }
      }
      JOINT rCollar
      {
        OFFSET -2.68224 19.2634 -4.8768
        CHANNELS 3 Zrotation Xrotation Yrotation
        JOINT rShldr
        {
          OFFSET -8.77824 -1.95073 1.46304
          CHANNELS 3 Zrotation Xrotation Yrotation
          JOINT rForeArm
          {
            OFFSET -28.1742 -1.7115 0.48768
            CHANNELS 3 Zrotation Xrotation Yrotation
            JOINT rHand
            {
              OFFSET -22.5879 0.773209 7.07136
              CHANNELS 3 Zrotation Xrotation Yrotation
              JOINT rThumb1
              {
                OFFSET -1.2192 -0.487915 3.41376
                CHANNELS 3 Zrotation Xrotation Yrotation
                JOINT rThumb2
                {
                  OFFSET -3.37035 -0.52449 3.41376
                  CHANNELS 3 Zrotation Xrotation Yrotation
                  End Site
                  {
                    OFFSET -1.78271 -1.18214 1.43049
                  }
                }
              }
              JOINT rIndex1
              {
                OFFSET -7.75947 0.938293 5.60832
                CHANNELS 3 Zrotation Xrotation Yrotation
                JOINT rIndex2
                {
                  OFFSET -2.54057 -0.884171 1.56538
                  CHANNELS 3 Zrotation Xrotation Yrotation
                  End Site
                  {
                    OFFSET -1.62519 -0.234802 1.16502
                  }
                }
              }
              JOINT rMid1
              {
                OFFSET -8.24714 1.18213 3.41376
                CHANNELS 3 Zrotation Xrotation Yrotation
                JOINT rMid2
                {
                  OFFSET -3.10165 -0.590103 1.0647
                  CHANNELS 3 Zrotation Xrotation Yrotation
                  End Site
                  {
                    OFFSET -2.48547 -0.328903 0.83742
                  }
                }
              }
              JOINT rRing1
              {
                OFFSET -8.82822 0.546677 1.51678
                CHANNELS 3 Zrotation Xrotation Yrotation
                JOINT rRing2
                {
                  OFFSET -2.60934 -0.819778 -0.0198488
                  CHANNELS 3 Zrotation Xrotation Yrotation
                  End Site
                  {
                    OFFSET -2.33842 -0.294052 0.168128
                  }
                }
              }
              JOINT rPinky1
              {
                OFFSET -8.27202 -0.0477905 -0.4584
                CHANNELS 3 Zrotation Xrotation Yrotation
                JOINT rPinky2
                {
                  OFFSET -1.82734 -0.647385 -0.700984
                  CHANNELS 3 Zrotation Xrotation Yrotation
                  End Site
                  {
                    OFFSET -1.69225 -0.51767 -0.607171
                  }
                }
              }
            }
          }
        }
      }
      JOINT lCollar
      {
        OFFSET 2.68224 19.2634 -4.8768
        CHANNELS 3 Zrotation Xrotation Yrotation
        JOINT lShldr
        {
          OFFSET 8.77824 -1.95073 1.46304
          CHANNELS 3 Zrotation Xrotation Yrotation
          JOINT lForeArm
          {
            OFFSET 28.1742 -1.7115 0.48768
            CHANNELS 3 Zrotation Xrotation Yrotation
            JOINT lHand
            {
              OFFSET 22.5879 0.773209 7.07136
              CHANNELS 3 Zrotation Xrotation Yrotation
              JOINT lThumb1
              {
                OFFSET 1.2192 -0.487915 3.41376
                CHANNELS 3 Zrotation Xrotation Yrotation
                JOINT lThumb2
                {
                  OFFSET 3.37035 -0.52449 3.41376
                  CHANNELS 3 Zrotation Xrotation Yrotation
                  End Site
                  {
                    OFFSET 1.78271 -1.18214 1.43049
                  }
                }
              }
              JOINT lIndex1
              {
                OFFSET 7.75947 0.938293 5.60832
                CHANNELS 3 Zrotation Xrotation Yrotation
                JOINT lIndex2
                {
                  OFFSET 2.54057 -0.884171 1.56538
                  CHANNELS 3 Zrotation Xrotation Yrotation
                  End Site
                  {
                    OFFSET 1.62519 -0.234802 1.16502
                  }
                }
              }
              JOINT lMid1
              {
                OFFSET 8.24714 1.18213 3.41376
                CHANNELS 3 Zrotation Xrotation Yrotation
                JOINT lMid2
                {
                  OFFSET 3.10165 -0.590103 1.0647
                  CHANNELS 3 Zrotation Xrotation Yrotation
                  End Site
                  {
                    OFFSET 2.48547 -0.328903 0.83742
                  }
                }
              }
              JOINT lRing1
              {
                OFFSET 8.82822 0.546677 1.51678
                CHANNELS 3 Zrotation Xrotation Yrotation
                JOINT lRing2
                {
                  OFFSET 2.60934 -0.819778 -0.0198488
                  CHANNELS 3 Zrotation Xrotation Yrotation
                  End Site
                  {
                    OFFSET 2.33842 -0.294052 0.168128
                  }
                }
              }
              JOINT lPinky1
              {
                OFFSET 8.27202 -0.0477905 -0.4584
                CHANNELS 3 Zrotation Xrotation Yrotation
                JOINT lPinky2
                {
                  OFFSET 1.82734 -0.647385 -0.700984
                  CHANNELS 3 Zrotation Xrotation Yrotation
                  End Site
                  {
                    OFFSET 1.69225 -0.51767 -0.607171
                  }
                }
              }
            }
          }
        }
      }
    }
  }
  JOINT rButtock
  {
    OFFSET -8.77824 4.35084 1.2192
    CHANNELS 3 Zrotation Xrotation Yrotation
    JOINT rThigh
    {
      OFFSET 0 -1.70687 -2.19456
      CHANNELS 3 Zrotation Xrotation Yrotation
      JOINT rShin
      {
        OFFSET 0 -36.8199 0.73152
        CHANNELS 3 Zrotation Xrotation Yrotation
        JOINT rFoot
        {
          OFFSET 0.73152 -45.1104 -5.12064
          CHANNELS 3 Zrotation Xrotation Yrotation
          End Site
          {
            OFFSET -1.1221 -3.69964 12.103
          }
        }
      }
    }
  }
  JOINT lButtock
  {
    OFFSET 8.77824 4.35084 1.2192
    CHANNELS 3 Zrotation Xrotation Yrotation
    JOINT lThigh
    {
      OFFSET 0 -1.70687 -2.19456
      CHANNELS 3 Zrotation Xrotation Yrotation
      JOINT lShin
      {
        OFFSET 0 -36.8199 0.73152
        CHANNELS 3 Zrotation Xrotation Yrotation
        JOINT lFoot
        {
          OFFSET -0.73152 -45.1104 -5.12064
          CHANNELS 3 Zrotation Xrotation Yrotation
          End Site
          {
            OFFSET 1.1221 -3.69964 12.103
          }
        }
      }
    }
  }
}
MOTION
Frames:	7
Frame Time:	0.00833333
11.1798 84.505 -7.03256 122.258 -80.9214 -114.605 -0.216587 -6.10817 -2.04918 3.11963 4.40594 -0.608548 -10.254 -6.85533 -6.78496 2.7931 3.4012 -9.85934 -0.0 0.0 0.0 -0.0 0.0 0.0 -4.82943e-14 2.45971e-13 2.69668e-14 78.0503 3.0185 -2.25012 -13.3433 -6.43811 24.2392 -0.0790661 -8.01937 -1.13448 2.36578e-09 -1.416e-09 4.24174e-09 4.0711e-09 -2.45607e-09 7.3435e-09 2.36579e-09 -1.416e-09 4.24172e-09 7.73091 5.47488 0.417314 2.36578e-09 -1.416e-09 4.24174e-09 2.90554 0.965183 0.102902 2.36578e-09 -1.41599e-09 4.24173e-09 10.2786 0.731801 0.0259123 2.36578e-09 -1.41599e-09 4.24174e-09 2.22167 -0.733487 -0.20892 -4.83679e-14 2.45967e-13 2.67459e-14 -89.0996 24.0585 3.64004 14.9812 -7.77399 -27.5496 0.16057 -11.3661 1.6188 2.39002e-10 1.09033e-09 -2.8523e-09 4.23713e-10 1.88568e-09 -4.92834e-09 2.39001e-10 1.09033e-09 -2.8523e-09 -7.73091 5.47488 -0.417314 2.39003e-10 1.09033e-09 -2.8523e-09 -2.90554 0.965183 -0.102902 2.39e-10 1.09033e-09 -2.8523e-09 -10.2786 0.731801 -0.0259123 2.39007e-10 1.09033e-09 -2.85231e-09 -2.22167 -0.733487 0.20892 -2.03217e-16 0.0 -3.88251e-19 -9.56392 -15.9126 -0.571675 0.00595323 22.7988 0.430021 -5.17544 -14.0911 -17.736 2.03217e-16 0.0 3.88251e-19 4.41897 -15.7993 4.61068 0.1549 25.7043 -0.4558 1.1999 -8.05809 4.56968
11.1011 84.456 -6.85867 122.136 -81.4553 -114.412 -0.179478 -6.32883 -2.13455 3.15809 4.4823 -0.638141 -9.93776 -7.25423 -6.56498 2.73377 3.56286 -9.4682 -0.0 0.0 0.0 -0.0 0.0 0.0 -2.54254e-14 3.83654e-14 3.03147e-14 78.5066 5.46586 -2.69365 -13.577 -6.61821 24.707 -0.0874302 -8.40479 -1.18985 1.38954e-09 -1.03434e-09 3.35141e-09 2.38506e-09 -1.79543e-09 5.80121e-09 1.38954e-09 -1.03434e-09 3.35139e-09 7.73091 5.47488 0.417314 1.38954e-09 -1.03434e-09 3.3514e-09 2.90554 0.965183 0.102902 1.38954e-09 -1.03434e-09 3.3514e-09 10.2786 0.731801 0.0259123 1.38954e-09 -1.03434e-09 3.35141e-09 2.22167 -0.733487 -0.20892 -2.54652e-14 3.83654e-14 3.01159e-14 -89.3355 24.0283 3.34324 14.6951 -7.52916 -26.9632 0.171074 -11.7061 1.6687 8.0697e-11 1.23666e-09 -2.18514e-09 1.473e-10 2.14104e-09 -3.77467e-09 8.06966e-11 1.23666e-09 -2.18513e-09 -7.73091 5.47488 -0.417314 8.06992e-11 1.23666e-09 -2.18514e-09 -2.90554 0.965183 -0.102902 8.06946e-11 1.23666e-09 -2.18514e-09 -10.2786 0.731801 -0.0259123 8.07038e-11 1.23666e-09 -2.18515e-09 -2.22167 -0.733487 0.20892 -2.03217e-16 0.0 -3.88251e-19 -9.40415 -15.8797 -0.665388 0.0061027 22.7012 0.430987 -5.25867 -14.1162 -17.9604 2.03217e-16 0.0 3.88251e-19 4.27317 -15.9456 4.08743 0.15296 25.6151 -0.459629 1.33304 -8.45805 4.99518
11.0404 84.4025 -6.66941 121.936 -82.0709 -114.114 -0.0993192 -6.54381 -2.20245 3.17849 4.55571 -0.662811 -9.62366 -7.53048 -6.32004 2.70027 3.58689 -9.04747 -0.0 0.0 0.0 -0.0 0.0 0.0 7.20153e-15 -4.61943e-13 5.90717e-14 79.0064 7.61595 -3.09788 -13.7708 -6.77019 25.0957 -0.0922165 -8.61118 -1.21957 5.16315e-10 -1.09211e-09 2.60012e-09 8.77673e-10 -1.89471e-09 4.49901e-09 5.16322e-10 -1.09211e-09 2.60011e-09 7.73091 5.47488 0.417314 5.16316e-10 -1.09211e-09 2.60011e-09 2.90554 0.965183 0.102902 5.16324e-10 -1.09211e-09 2.60011e-09 10.2786 0.731801 0.0259123 5.16318e-10 -1.0921e-09 2.60012e-09 2.22167 -0.733487 -0.20892 7.16113e-15 -4.61942e-13 5.88496e-14 -89.5085 24.1727 3.02209 14.3941 -7.2779 -26.3485 0.175405 -11.8419 1.68868 -2.14738e-10 1.29843e-09 -1.46319e-09 -3.66816e-10 2.24851e-09 -2.5282e-09 -2.14738e-10 1.29843e-09 -1.46318e-09 -7.73091 5.47488 -0.417314 -2.14735e-10 1.29843e-09 -1.46318e-09 -2.90554 0.965183 -0.102902 -2.14742e-10 1.29843e-09 -1.46319e-09 -10.2786 0.731801 -0.0259123 -2.14732e-10 1.29843e-09 -1.4632e-09 -2.22167 -0.733487 0.20892 -2.03217e-16 0.0 -3.88251e-19 -9.18139 -15.8705 -0.621732 0.00484938 22.6594 0.434353 -5.41634 -14.1993 -18.3557 2.03217e-16 0.0 3.88251e-19 4.17029 -16.0756 3.63518 0.150219 25.5711 -0.465515 1.50201 -8.97 5.50396
10.9919 84.3134 -6.45915 121.413 -82.5869 -113.498 0.0103338 -6.75395 -2.26732 3.18329 4.63964 -0.686803 -9.30834 -7.73419 -6.06122 2.68831 3.51427 -8.61224 -0.0 0.0 0.0 -0.0 0.0 0.0 4.45585e-14 -1.15094e-12 1.0389e-13 79.5381 9.58847 -3.46181 -13.9448 -6.90906 25.4451 -0.0942195 -8.69897 -1.23221 -3.43208e-10 -1.45306e-09 1.83828e-09 -6.05481e-10 -2.51832e-09 3.17822e-09 -3.43202e-10 -1.45306e-09 1.83827e-09 7.73091 5.47488 0.417314 -3.43207e-10 -1.45306e-09 1.83828e-09 2.90554 0.965183 0.102902 -3.43199e-10 -1.45305e-09 1.83828e-09 10.2786 0.731801 0.0259123 -3.43207e-10 -1.45305e-09 1.83829e-09 2.22167 -0.733487 -0.20892 4.44999e-14 -1.15094e-12 1.03617e-13 -89.6076 24.4461 2.66439 14.0804 -7.02159 -25.7118 0.176273 -11.8699 1.6928 -5.58995e-10 1.3131e-09 -6.14662e-10 -9.66242e-10 2.27394e-09 -1.06376e-09 -5.58996e-10 1.3131e-09 -6.14655e-10 -7.73091 5.47488 -0.417314 -5.58992e-10 1.3131e-09 -6.14661e-10 -2.90554 0.965183 -0.102902 -5.59002e-10 1.31311e-09 -6.1466e-10 -10.2786 0.731801 -0.0259123 -5.58992e-10 1.3131e-09 -6.14669e-10 -2.22167 -0.733487 0.20892 -2.03217e-16 0.0 -3.88251e-19 -8.90474 -15.8708 -0.46187 0.00277309 22.6445 0.43928 -5.63408 -14.3207 -18.8939 2.03217e-16 0.0 3.88251e-19 4.10179 -16.2084 3.21821 0.147077 25.5722 -0.473023 1.69102 -9.55464 6.02876
11.0341 84.2391 -6.02749 117.816 -82.7025 -109.715 0.107258 -6.95731 -2.33086 3.17748 4.71554 -0.709442 -8.99887 -7.90635 -5.79485 2.69409 3.4065 -8.16705 -0.0 0.0 0.0 -0.0 0.0 0.0 7.75432e-14 -1.76638e-12 1.43142e-13 80.1049 11.3619 -3.82265 -14.1135 -7.04589 25.7839 -0.0957204 -8.77572 -1.24323 -1.07593e-09 -1.84316e-09 1.05397e-09 -1.86882e-09 -3.19197e-09 1.81877e-09 -1.07593e-09 -1.84316e-09 1.05397e-09 7.73091 5.47488 0.417314 -1.07593e-09 -1.84316e-09 1.05397e-09 2.90554 0.965183 0.102902 -1.07592e-09 -1.84316e-09 1.05397e-09 10.2786 0.731801 0.0259123 -1.07593e-09 -1.84316e-09 1.05399e-09 2.22167 -0.733487 -0.20892 7.74643e-14 -1.76638e-12 1.42817e-13 -89.6674 24.7448 2.33353 13.775 -6.77618 -25.0987 0.174659 -11.8208 1.68555 -8.84249e-10 1.2824e-09 2.96579e-10 -1.5333e-09 2.22079e-09 5.08989e-10 -8.84252e-10 1.2824e-09 2.96586e-10 -7.73091 5.47488 -0.417314 -8.84246e-10 1.2824e-09 2.96578e-10 -2.90554 0.965183 -0.102902 -8.8426e-10 1.28241e-09 2.96582e-10 -10.2786 0.731801 -0.0259123 -8.84249e-10 1.2824e-09 2.96575e-10 -2.22167 -0.733487 0.20892 -2.03217e-16 0.0 -3.88251e-19 -8.63064 -15.8663 -0.244776 0.000988885 22.6319 0.444433 -5.87416 -14.4389 -19.496 2.03217e-16 0.0 3.88251e-19 4.019 -16.342 2.80599 0.144207 25.5969 -0.481898 1.90538 -10.1409 6.60745
11.0076 84.1753 -5.94644 119.08 -83.2752 -110.909 0.149212 -7.15196 -2.39475 3.16602 4.76488 -0.730051 -8.70173 -8.08802 -5.52725 2.71192 3.32537 -7.71623 -0.0 0.0 0.0 -0.0 0.0 0.0 9.70529e-14 -2.04599e-12 1.55201e-13 80.7143 12.9142 -4.21772 -14.2906 -7.1914 26.1407 -0.0992408 -8.94902 -1.26813 -1.56876e-09 -1.98839e-09 2.35262e-10 -2.71675e-09 -3.44137e-09 4.00552e-10 -1.56875e-09 -1.98839e-09 2.35262e-10 7.73091 5.47488 0.417314 -1.56875e-09 -1.98839e-09 2.35266e-10 2.90554 0.965183 0.102902 -1.56875e-09 -1.98839e-09 2.35265e-10 10.2786 0.731801 0.0259123 -1.56876e-09 -1.98839e-09 2.35278e-10 2.22167 -0.733487 -0.20892 9.69673e-14 -2.04599e-12 1.54853e-13 -89.7266 24.9656 2.09441 13.5008 -6.55857 -24.5549 0.171637 -11.725 1.67147 -1.12268e-09 1.20806e-09 1.20668e-09 -1.95031e-09 2.0925e-09 2.08038e-09 -1.12268e-09 1.20806e-09 1.20669e-09 -7.73091 5.47488 -0.417314 -1.12267e-09 1.20806e-09 1.20668e-09 -2.90554 0.965183 -0.102902 -1.12269e-09 1.20806e-09 1.20668e-09 -10.2786 0.731801 -0.0259123 -1.12268e-09 1.20806e-09 1.20668e-09 -2.22167 -0.733487 0.20892 -2.03217e-16 0.0 -3.88251e-19 -8.41567 -15.843 -0.0294742 0.000618429 22.5972 0.448474 -6.09639 -14.5138 -20.0823 2.03217e-16 0.0 3.88251e-19 3.87304 -16.4743 2.36795 0.142269 25.6234 -0.491879 2.14913 -10.6576 7.27747
10.9601 84.1245 -5.64769 117.18 -83.4769 -108.883 0.101292 -7.34336 -2.47713 3.15309 4.78125 -0.753002 -8.41053 -8.27059 -5.25046 2.74565 3.25903 -7.24694 -0.0 0.0 0.0 -0.0 0.0 0.0 9.77659e-14 -1.7961e-12 1.21829e-13 81.3846 14.2295 -4.67949 -14.4929 -7.36006 26.5493 -0.105421 -9.21074 -1.30592 -1.7688e-09 -1.76515e-09 -8.51945e-10 -3.05617e-09 -3.05167e-09 -1.48145e-09 -1.76879e-09 -1.76515e-09 -8.51952e-10 7.73091 5.47488 0.417314 -1.76879e-09 -1.76515e-09 -8.51944e-10 2.90554 0.965183 0.102902 -1.76879e-09 -1.76515e-09 -8.51944e-10 10.2786 0.731801 0.0259123 -1.7688e-09 -1.76515e-09 -8.51934e-10 2.22167 -0.733487 -0.20892 9.76955e-14 -1.7961e-12 1.21504e-13 -89.7979 25.0857 1.9832 13.2647 -6.37493 -24.0886 0.165495 -11.5229 1.64182 -1.28215e-09 1.05648e-09 2.3953e-09 -2.2326e-09 1.83142e-09 4.13381e-09 -1.28215e-09 1.05648e-09 2.39531e-09 -7.73091 5.47488 -0.417314 -1.28215e-09 1.05648e-09 2.3953e-09 -2.90554 0.965183 -0.102902 -1.28216e-09 1.05648e-09 2.39531e-09 -10.2786 0.731801 -0.0259123 -1.28215e-09 1.05648e-09 2.3953e-09 -2.22167 -0.733487 0.20892 -2.03217e-16 0.0 -3.88251e-19 -8.2866 -15.7848 0.184307 0.00248685 22.5287 0.451154 -6.30444 -14.5307 -20.6861 2.03217e-16 0.0 3.88251e-19 3.62797 -16.606 1.89096 0.141781 25.652 -0.503517 2.43676 -11.0726 8.10225
